<svg width="512" height="512" viewBox="0 0 512 512" xmlns="http://www.w3.org/2000/svg">
  <defs>
    <linearGradient id="g1" x1="0" y1="0" x2="1" y2="1">
      <stop offset="0%" stop-color="#1565C0"/>
      <stop offset="100%" stop-color="#64B5F6"/>
    </linearGradient>
  </defs>
  <rect width="512" height="512" rx="96" fill="#121212"/>
  <circle cx="256" cy="220" r="148" fill="url(#g1)"/>
  <path d="M158 164h196a26 26 0 0 1 26 26v94a26 26 0 0 1-26 26H252l-60 44v-44h-34a26 26 0 0 1-26-26v-94a26 26 0 0 1 26-26z" fill="#fff"/>
  <rect x="188" y="208" width="138" height="16" rx="8" fill="#C62828"/>
  <rect x="188" y="240" width="94" height="16" rx="8" fill="#C62828"/>
  <path d="M140 392h232" stroke="#EF9A9A" stroke-width="20" stroke-linecap="round"/>
  <text x="256" y="430" fill="#FFFFFF" font-family="Arial, Helvetica, sans-serif" font-size="42" text-anchor="middle">LangMaster</text>
</svg>
